<svg width="170" height="38" viewBox="0 0 170 38" fill="none" xmlns="http://www.w3.org/2000/svg">
<path d="M71.1064 4.90194C72.1252 4.90194 72.9524 5.73729 72.9524 6.76617V18.4636H79.6427C80.5693 18.4636 81.3213 19.223 81.3213 20.1588C81.3213 21.0946 80.5693 21.854 79.6427 21.854H69.2604V6.76617C69.2604 5.73729 70.0876 4.90194 71.1064 4.90194Z" fill="#F5FAF0"/>
<path d="M85.7095 4.90188C86.7696 4.90188 87.6283 5.76908 87.6283 6.83961C87.6283 7.91013 86.7696 8.77734 85.7095 8.77734C84.6495 8.77734 83.7908 7.91013 83.7908 6.83961C83.7908 5.76908 84.6495 4.90188 85.7095 4.90188ZM85.7095 10.2055C86.7162 10.2055 87.5313 11.0286 87.5313 12.0453V21.8539H83.8854V12.0453C83.8854 11.0286 84.7004 10.2055 85.7071 10.2055H85.7095Z" fill="#F5FAF0"/>
<path d="M91.5847 12.9174H90.0735V9.88951H91.5847V9.0664C91.5847 7.63822 91.9437 6.59709 92.6157 5.91852C93.2876 5.23994 94.2701 4.90188 95.5654 4.90188C96.7152 4.90188 97.4842 5.04642 98.1561 5.26444V8.31434C97.6297 8.12081 97.1252 7.99833 96.5018 7.99833C95.6625 7.99833 95.1822 8.43437 95.1822 9.40201V9.91155H98.1319V12.9149H95.2307V21.8515H91.5847V12.9149V12.9174Z" fill="#F5FAF0"/>
<path d="M99.2574 15.4357V15.3867C99.2574 11.6827 101.872 8.63035 105.613 8.63035C109.904 8.63035 111.871 11.9963 111.871 15.6782C111.871 15.9697 111.847 16.3078 111.823 16.6458H102.879C103.238 18.3165 104.39 19.1886 106.02 19.1886C106.901 19.1886 107.607 18.9878 108.308 18.5248C108.846 18.1671 109.562 18.2357 110.045 18.6668C110.743 19.2915 110.688 20.4159 109.926 20.9622C108.873 21.7143 107.563 22.143 105.974 22.143C102.113 22.143 99.2599 19.4067 99.2599 15.4357H99.2574ZM108.32 14.3455C108.104 12.6993 107.146 11.5847 105.611 11.5847C104.075 11.5847 103.117 12.6748 102.828 14.3455H108.32Z" fill="#F5FAF0"/>
<path d="M116.978 8.33883H113.572C112.631 8.33883 111.869 7.56962 111.869 6.61913C111.869 5.66864 112.631 4.89943 113.572 4.89943H124.075C125.017 4.89943 125.778 5.66864 125.778 6.61913C125.778 7.56962 125.017 8.33883 124.075 8.33883H120.67V21.8515H116.978V8.33883Z" fill="#F5FAF0"/>
<path d="M129.977 4.90188C131.037 4.90188 131.896 5.76908 131.896 6.83961C131.896 7.91013 131.037 8.77734 129.977 8.77734C128.917 8.77734 128.059 7.91013 128.059 6.83961C128.059 5.76908 128.917 4.90188 129.977 4.90188ZM129.977 10.2055C130.984 10.2055 131.799 11.0286 131.799 12.0453V21.8539H128.153V12.0453C128.153 11.0286 128.968 10.2055 129.975 10.2055H129.977Z" fill="#F5FAF0"/>
<path d="M135.227 8.87287H138.873V10.7028C138.873 10.7028 138.877 10.7077 138.877 10.7028C139.717 9.61514 140.818 8.6279 142.659 8.6279C144.338 8.6279 145.609 9.37751 146.281 10.6857C147.409 9.35302 148.75 8.6279 150.502 8.6279C153.211 8.6279 154.841 10.2741 154.841 13.3975V21.849H151.195V14.6077C151.195 12.8635 150.429 11.9669 149.061 11.9669C147.693 11.9669 146.856 12.8635 146.856 14.6077V21.849H143.21V14.6077C143.21 12.8635 142.443 11.9669 141.075 11.9669C139.707 11.9669 138.87 12.8635 138.87 14.6077V21.849H135.224V8.86797L135.227 8.87287Z" fill="#F5FAF0"/>
<path d="M157.386 15.4357V15.3867C157.386 11.6827 160.001 8.63035 163.742 8.63035C168.033 8.63035 170 11.9963 170 15.6782C170 15.9697 169.976 16.3078 169.951 16.6458H161.008C161.367 18.3165 162.519 19.1886 164.149 19.1886C165.03 19.1886 165.736 18.9878 166.437 18.5248C166.975 18.1671 167.691 18.2357 168.173 18.6668C168.872 19.2915 168.816 20.4159 168.055 20.9622C167.002 21.7143 165.692 22.143 164.103 22.143C160.241 22.143 157.388 19.4067 157.388 15.4357H157.386ZM166.449 14.3455C166.233 12.6993 165.275 11.5847 163.739 11.5847C162.204 11.5847 161.245 12.6748 160.957 14.3455H166.449Z" fill="#F5FAF0"/>
<path d="M69.258 27.6132H75.4631V28.941H70.7304V31.1383H74.927V32.4661H70.7304V34.7345H75.5238V36.0623H69.2604V27.6108L69.258 27.6132Z" fill="#F5FAF0"/>
<path d="M80.6227 27.6132H82.248L84.7708 34.1074L87.2814 27.6132H88.8703L85.4039 36.1235H84.1013L80.6227 27.6132Z" fill="#F5FAF0"/>
<path d="M93.9717 27.6132H100.177V28.941H95.4441V31.1383H99.6407V32.4661H95.4441V34.7345H100.237V36.0623H93.9741V27.6108L93.9717 27.6132Z" fill="#F5FAF0"/>
<path d="M105.812 27.6132H107.175L111.658 33.4558V27.6132H113.104V36.0647H111.871L107.258 30.0531V36.0647H105.812V27.6132Z" fill="#F5FAF0"/>
<path d="M121.075 28.9899H118.421V27.6132H125.211V28.9899H122.557V36.0647H121.075V28.9899Z" fill="#F5FAF0"/>
<path d="M44.2459 0C43.8239 0 43.4042 0.0146983 43.0015 0.0416452C38.56 0.338061 34.3561 2.24394 31.1638 5.40897L17.7833 19L24.7064 26.0307C25.6379 26.9787 27.154 26.9812 28.0928 26.0405C29.0315 25.0998 29.034 23.5687 28.1025 22.6207L24.5366 18.9976L34.5308 8.84593C36.9032 6.49665 40.0227 5.08316 43.3217 4.86269C43.6201 4.84309 43.9306 4.83084 44.2459 4.83084C51.9259 4.83084 58.1747 11.1854 58.1747 18.9951C58.1747 26.8048 51.9259 33.1594 44.2459 33.1594C43.9306 33.1594 43.6201 33.1496 43.3169 33.1275C41.5509 33.0099 39.8505 32.5592 38.2592 31.79C37.0681 31.2118 35.6369 31.7189 35.0644 32.9242C34.4919 34.127 34.9941 35.5723 36.1876 36.1505C38.3295 37.1891 40.6243 37.7967 42.9967 37.9535C43.4018 37.9804 43.8214 37.9951 44.2435 37.9951C54.5651 37.9951 62.9607 29.4725 62.9607 18.9951C62.9607 8.51766 54.5651 0 44.2459 0Z" fill="#F5FAF0"/>
<path d="M45.0076 25.6559C45.4758 26.1287 46.0871 26.3638 46.7008 26.3638C47.3145 26.3638 47.9258 26.1287 48.394 25.6559C49.3279 24.7127 49.3279 23.1817 48.394 22.2361L38.5988 12.3441C37.6648 11.401 36.1487 11.401 35.2124 12.3441C34.2785 13.2873 34.2785 14.8183 35.2124 15.7639L38.4217 19.0049L28.4324 29.1516C26.06 31.5009 22.9405 32.9144 19.6414 33.1349C19.343 33.1545 19.0325 33.1667 18.7172 33.1667C11.0372 33.1667 4.78846 26.8121 4.78846 19.0025C4.78846 11.1928 11.0372 4.83819 18.7172 4.83819C19.0325 4.83819 19.343 4.84799 19.6463 4.87004C21.371 4.98517 23.0375 5.41877 24.5997 6.15859C24.6385 6.17574 24.6773 6.19533 24.7161 6.21493C25.9072 6.79551 27.3384 6.29087 27.9133 5.08806C28.4882 3.88525 27.9885 2.43992 26.7974 1.85933C26.7416 1.83239 26.6883 1.80544 26.6349 1.78094C24.5293 0.77901 22.2855 0.195977 19.964 0.0416452C19.5589 0.0146983 19.1393 0 18.7172 0C8.39557 0 0 8.52256 0 19C0 29.4774 8.39557 38 18.7172 38C19.1393 38 19.5614 37.9853 19.9616 37.9584C24.4032 37.6619 28.607 35.7561 31.7993 32.591L41.808 22.4247L45.0076 25.6559Z" fill="#F5FAF0"/>
</svg>
